# xmcd
#
# Track frame offsets:
#	150
#	17660
#	34476
#	48797
#	61377
#	80128
#	97388
#	114168
#	135898
#	157362
#	172559
#	196904
#	208238
#	230516
#	241465
#
# Disc length: 3445 seconds
#
# Revision: 0
# Processed by: cddbd v1.5.2PL0 Copyright (c) Steve Scherf et al.
# Submitted via: audiograbber 1.83.01
#
DISCID=cb0d730f
DTITLE=Various Artist - 15 Soulful Serenades
DYEAR=1900
DGENRE=
TTITLE0=Charles Brimmer - Show And Tell
TTITLE1=Karen Pree - You've Gotten To Me
TTITLE2=Thunderbird Sound - In Heaven And On Earth
TTITLE3=Lynn Varnado - Ain't That Something
TTITLE4=Clarence Jackson - I Miss You
TTITLE5=Love 'N' Comfort Rhythm - High Class Way
TTITLE6=Lorretta Kendrick - My Feelings Keep Getting In The Way
TTITLE7=Tim Carter - Thank You Marvin
TTITLE8=Masqueraders Orchestra - Trouble Has Called
TTITLE9=Karen Pree - Can't Help Loving (The One That's Loving Me)
TTITLE10=Clarence Jackson - Me And My Lady
TTITLE11=Thunderbird Sound - Our Finest Hour
TTITLE12=Masqueraders - When Trouble Calls
TTITLE13=Leontine Dupree - Colour Me Foolish
TTITLE14=Love 'N' Comfort Orchestra - Show And Tell
EXTD=
EXTT0=
EXTT1=
EXTT2=
EXTT3=
EXTT4=
EXTT5=
EXTT6=
EXTT7=
EXTT8=
EXTT9=
EXTT10=
EXTT11=
EXTT12=
EXTT13=
EXTT14=
PLAYORDER=
